<svg xmlns="http://www.w3.org/2000/svg" viewBox="0 0 64 64" width="64" height="64">
  <defs>
    <linearGradient id="brandGrad" x1="0%" y1="0%" x2="100%" y2="100%">
      <stop offset="0%" stop-color="#2563eb" />
      <stop offset="100%" stop-color="#06b6d4" />
    </linearGradient>
    <filter id="shadow" x="-10%" y="-10%" width="120%" height="120%">
      <feDropShadow dx="0" dy="2" stdDeviation="2" flood-color="#000000" flood-opacity="0.3" />
    </filter>
  </defs>

  <!-- Gradient Squircle Container -->
  <rect width="64" height="64" rx="16" fill="url(#brandGrad)" />

  <!-- Building2 Icon Geometry -->
  <g transform="translate(14, 14) scale(1.5)" stroke="#ffffff" stroke-width="2" stroke-linecap="round" stroke-linejoin="round" fill="none">
    <path d="M6 22V4a2 2 0 0 1 2-2h8a2 2 0 0 1 2 2v18Z"/>
    <path d="M6 12H4a2 2 0 0 0-2 2v6a2 2 0 0 0 2 2h2"/>
    <path d="M18 9h2a2 2 0 0 1 2 2v9a2 2 0 0 1-2 2h-2"/>
    <path d="M10 6h4"/>
    <path d="M10 10h4"/>
    <path d="M10 14h4"/>
    <path d="M10 18h4"/>
  </g>
</svg>